<?xml version="1.0" encoding="UTF-8"?>
<svg id="Calque_1" data-name="Calque 1" xmlns="http://www.w3.org/2000/svg" viewBox="0 0 12.63 25.59">
  <defs>
    <style>
      .cls-1 {
        fill: #676767;
        stroke: #e0e0e0;
        stroke-miterlimit: 10;
        stroke-width: .52px;
      }
    </style>
  </defs>
  <path class="cls-1" d="M8.37,12.73v12.51c-1.81,.17-3.6,.05-5.41,.09V12.96c-.91-.05-1.8-.1-2.7-.14v-4.34H2.92c0-.24,0-.47,0-.69,.02-1.17,0-2.33,.07-3.5,.11-1.87,1.26-3.18,3.15-3.68,.9-.24,1.81-.34,2.74-.35,1.1,0,2.19,.01,3.29,.02,.04,0,.08,.01,.13,.02,0,.08,.01,.15,.01,.22,0,1.37,0,2.74,0,4.11,0,.2-.05,.26-.26,.25-.9-.01-1.8,0-2.7,0-.06,0-.13,0-.19,.01-.52,.04-.74,.24-.78,.74-.03,.4-.03,.81-.04,1.22,0,.45,0,.9,0,1.36,0,.19,.05,.24,.25,.24,1.16,0,2.32,0,3.48,0,.09,0,.18,0,.28,0,0,.06,.02,.09,.01,.12-.13,1.38-.26,2.76-.39,4.17h-3.61Z"/>
</svg>