<?xml version="1.0" encoding="iso-8859-1"?>
<!-- Generator: Adobe Illustrator 19.0.0, SVG Export Plug-In . SVG Version: 6.00 Build 0)  -->
<svg version="1.1" id="Layer_1" xmlns="http://www.w3.org/2000/svg" xmlns:xlink="http://www.w3.org/1999/xlink" x="0px" y="0px" viewBox="0 0 481.882 481.882" style="enable-background:new 0 0 481.882 481.882;" xml:space="preserve"><g><g><polygon points="240.941,0 88.232,115.454 393.65,115.454"/></g></g><g><g><path d="M93.521,220.688H0v261.195h93.521h16.462V220.688H93.521z M81.479,447.122H28.505v-75.351h52.974V447.122zM81.479,330.799H28.505v-75.351h52.974V330.799z"/></g></g><g><g><path d="M388.36,220.688h-16.461v261.195h16.461h93.522V220.688H388.36z M453.378,447.122h-52.973v-75.351h52.973V447.122zM453.378,330.799h-52.973v-75.351h52.973V330.799z"/></g></g><g><g><path d="M124.586,130.513v351.37h68.792V351.285h95.126v130.598h68.792v-351.37H124.586z M227.48,320.407h-70.343v-66.278h70.343V320.407z M227.48,228.579h-70.343v-66.278h70.343V228.579z M324.744,320.407h-70.343v-66.278h70.343V320.407z M324.744,228.579h-70.343v-66.278h70.343V228.579z"/></g></g></svg>
